# xmcd
#
# Track frame offsets:
# 150
# 18969
# 33832
# 50325
# 64396
# 84606
# 99561
# 114767
# 131748
# 146045
# 161453
# 166581
# 181977
# 198783
# 215476
# 233092
# 250543
#
# Disc length: 3530 seconds
#
#
# Revision: 0
# Processed by: cddbd v1.5.2PL0 Copyright (c) Steve Scherf et al.
# Submitted via: FreeRIP 2.945 
#
DISCID=d70dc811
DTITLE=varios - varios
DYEAR=1900
DGENRE=sertanejo
TTITLE0=canarinho prisioneiro
TTITLE1=pescador e catireiro
TTITLE2=a vida de pescador
TTITLE3=dia de visita
TTITLE4=o preto e o branco
TTITLE5=bica da´gua
TTITLE6=cachaça, mulher
TTITLE7=pagode em brasilia
TTITLE8=caboclo na cidade
TTITLE9=prato do dia
TTITLE10=que era eu
TTITLE11=alma transparente
TTITLE12=a coisa tá feia
TTITLE13=filho adotivo
TTITLE14=meu barraco caiu
TTITLE15=se a casa cair
TTITLE16=empreitada perigosa
EXTD=
EXTT0=
EXTT1=
EXTT2=
EXTT3=
EXTT4=
EXTT5=
EXTT6=
EXTT7=
EXTT8=
EXTT9=
EXTT10=
EXTT11=
EXTT12=
EXTT13=
EXTT14=
EXTT15=
EXTT16=
PLAYORDER=
